<svg height="280.55643mm" viewBox="0 0 834.25769 280.55642" width="834.25769mm" xmlns="http://www.w3.org/2000/svg"><g transform="translate(138.56874 -88.763127)"><path d="m-90.473942 211.25774a42.333332 42.333332 0 0 1 59.051348-8.59912 42.333332 42.333332 0 0 1 8.981422 58.99441 42.333332 42.333332 0 0 1 -58.935 9.36335" fill="none" stroke="#17a9ff" stroke-linecap="round" stroke-linejoin="round" stroke-width="7"/><path d="m-55.959357 211.01864a13.229156 13.229172 0 0 1 5.666297-10.9055 13.229156 13.229172 0 0 1 12.193064-1.5381" fill="none" stroke="#17a9ff" stroke-linecap="round" stroke-linejoin="round" stroke-width="7"/><path d="m-62.498833 278.44389a14.555298 22.583605 0 0 1 .21844-21.75013 14.555298 22.583605 0 0 1 11.950455-11.37442" fill="none" stroke="#17a9ff" stroke-linecap="round" stroke-linejoin="round" stroke-width="7"/><path d="m-86.568803 284.59373a36.731895 45.324795 0 0 1 15.42119-31.16383 36.731895 45.324795 0 0 1 29.039535-7.01997" fill="none" stroke="#17a9ff" stroke-linecap="round" stroke-linejoin="round" stroke-width="7"/><path d="m-135.02996 273.71939a48.995029 55.217094 0 0 1 52.087993-3.68748" fill="none" stroke="#17a9ff" stroke-linecap="round" stroke-linejoin="round" stroke-width="7"/><path d="m-56.684747 194.34338a39.884659 42.333332 0 0 1 -30.401275-15.0108" fill="none" stroke="#17a9ff" stroke-linecap="round" stroke-linejoin="round" stroke-width="7"/><path d="m-95.656945 162.20945a42.707508 46.82346 0 0 1 19.233557-50.03262 42.707508 46.82346 0 0 1 49.417562 3.52689" fill="none" stroke="#17a9ff" stroke-linecap="round" stroke-linejoin="round" stroke-width="7"/><path d="m-78.718502 171.33463a30.380255 30.585934 0 0 1 2.770351-40.85194 30.380255 30.585934 0 0 1 40.64549-1.46923" fill="none" stroke="#17a9ff" stroke-linecap="round" stroke-linejoin="round" stroke-width="7"/><path d="m-26.783682 115.94519a7.403542 8.20469 0 0 1 2.385309 7.87549 7.403542 8.20469 0 0 1 -5.042529 6.1468 7.403542 8.20469 0 0 1 -7.300935-1.88337" fill="none" stroke="#17a9ff" stroke-linecap="round" stroke-linejoin="round" stroke-width="7"/><path d="m-40.670826 108.26783c-3.74103-9.572701-8.72907-12.307762-8.72907-12.307762l2.49401 8.205172s-3.741031 0 0 1.36753" fill="#fff" stroke="#17a9ff" stroke-width="7"/><g fill="none" stroke-linecap="round"><path d="m-40.131731 183.56891a30.380255 30.585934 0 0 1 -21.963597-9.04187 30.380255 30.585934 0 0 1 -8.80633-22.18342" stroke="#17a9ff" stroke-linejoin="round" stroke-width="7"/><path d="m-140.43004 69.35713a30.380255 30.585934 0 0 1 -21.96359-9.041875 30.380255 30.585934 0 0 1 -8.80633-22.183417" stroke="#17a9ff" stroke-linejoin="round" stroke-width="7" transform="matrix(.57416268 -.81874124 .81874124 .57416268 0 0)"/><path d="m-23.819363 155.33863a12.052743 14.173429 0 0 1 -6.078673 12.79435 12.052743 14.173429 0 0 1 -12.458911-.3726" stroke="#17a9ff" stroke-linejoin="round" stroke-width="7"/><path d="m-18.497342 194.3325a57.085285 56.889126 0 0 1 16.2221497 59.75567 57.085285 56.889126 0 0 1 -48.1268407 39.13811 57.085285 56.889126 0 0 1 -55.490267-27.82174" stroke="#17a9ff" stroke-linejoin="round" stroke-width="7"/><path d="m371.74781 107.57847v158.8033" stroke="#009434" stroke-width="7"/><path d="m472.28985 107.57847v158.8033" stroke="#009434" stroke-width="7"/><path d="m472.28982 276.43592 8.92972 6.41615" stroke="#009434" stroke-width="7"/><path d="m472.1609 276.34223-8.80416 6.53738" stroke="#009434" stroke-width="7"/><path d="m472.28983 277.22973v15.08123" stroke="#009434" stroke-width="7"/><path d="m387.35049 120.86404 72.85893 129.61292" stroke="#009434" stroke-width="7"/><path d="m452.45272 163.27684a39.687504 37.041668 0 0 1 -19.0962-41.6996 39.687504 37.041668 0 0 1 38.46741-27.703794 39.687504 37.041668 0 0 1 38.37499 27.815234 39.687504 37.041668 0 0 1 -19.23495 41.644" stroke="#009434" stroke-width="7"/><path d="m472.28946 144.621-15.87501-15.82257" stroke="#009434" stroke-width="7"/><path d="m472.28956 129.27508 15.875-15.8225" stroke="#009434" stroke-width="7"/><path d="m472.28956 161.02528 15.875-15.82258" stroke="#009434" stroke-width="7"/><path d="m414.08117 128.26923v38.1" stroke="#009434" stroke-width="7"/><path d="m410.32175 192.20822a21.166666 21.166666 0 0 1 22.34011 9.674" stroke="#009434" stroke-width="7"/><path d="m404.79599-180.6221a13.244102 13.20964 0 0 1 -11.94207-2.23302 13.244102 13.20964 0 0 1 -5.09163-11.0031" stroke="#009434" stroke-width="7" transform="scale(1 -1)"/><path d="m-435.88396-26.33567a16.097124 13.771574 0 0 1 -16.1025 4.03022 16.097124 13.771574 0 0 1 -11.5468-10.413371" stroke="#009434" stroke-width="8.105018" transform="matrix(-.86597616 -.50008528 -.39516616 .91860966 0 0)"/><path d="m371.61695 276.60505 8.92972 6.41615" stroke="#009434" stroke-width="7"/><path d="m371.48803 276.51136-8.80416 6.53738" stroke="#009434" stroke-width="7"/><path d="m371.61696 277.39887v15.08122" stroke="#009434" stroke-width="7"/><path d="m72.684738 293.17111a53.031509 56.246609 0 0 1 -52.153697-42.58776 53.031509 56.246609 0 0 1 27.095809-63.62097 53.031509 56.246609 0 0 1 64.60525 13.35151" stroke="#fff" stroke-linejoin="round" stroke-width="7.068617"/><path d="m222.98793 279.55922a53.031509 56.246609 0 0 1 -66.68082 2.15448 53.031509 56.246609 0 0 1 -15.90703-68.71536 53.031509 56.246609 0 0 1 60.03924-30.84487 53.031509 56.246609 0 0 1 40.97492 55.83685" stroke="#fff" stroke-linejoin="round" stroke-width="7.068617"/><path d="m72.684738 293.17111a53.031509 56.246609 0 0 1 -52.153697-42.58776 53.031509 56.246609 0 0 1 27.095809-63.62097 53.031509 56.246609 0 0 1 64.60525 13.35151" stroke="#fff" stroke-linejoin="round" stroke-width="7.068617"/><path d="m111.49446 201.42298-56.344732 56.46956" stroke="#fff" stroke-width="7"/><path d="m241.37493 238.50811-.45334 54.54323" stroke="#fff" stroke-width="6.859963"/><path d="m209.49166 283.73564a14.555298 22.583605 0 0 1 .21844-21.75014 14.555298 22.583605 0 0 1 11.95046-11.37441" stroke="#17a9ff" stroke-linejoin="round" stroke-width="7"/><path d="m185.15546 293.30999a36.731895 45.324795 0 0 1 14.55838-33.57891 36.731895 45.324795 0 0 1 30.16858-8.0294" stroke="#17a9ff" stroke-linejoin="round" stroke-width="7"/><path d="m549.99485 293.17136a53.031509 56.246613 0 0 1 -52.1537-42.58776 53.031509 56.246613 0 0 1 27.09581-63.62097 53.031509 56.246613 0 0 1 64.60525 13.3515" stroke="#fff" stroke-linejoin="round" stroke-width="7.068617"/><path d="m588.80347 201.42284-56.34466 56.46956" stroke="#fff" stroke-width="7"/><path d="m652.96191 178.69139v114.70006" stroke="#fff" stroke-width="7"/><path d="m680.34988 201.42284-56.34466 56.46956" stroke="#fff" stroke-width="7"/><path d="m651.1208 207.16207-15.87501-15.82257" stroke="#009434" stroke-width="7"/><path d="m633.19637 230.03511a39.687504 37.041668 0 0 1 -19.0962-41.6996 39.687504 37.041668 0 0 1 38.46742-27.70379 39.687504 37.041668 0 0 1 38.37499 27.81523 39.687504 37.041668 0 0 1 -19.23496 41.64401" stroke="#009434" stroke-width="7"/><path d="m344.4868 218.98809-79.72116.00025" stroke="#fff" stroke-width="14"/></g><text font-family="UD Digi Kyokasho NK-R" font-size="10.583333" letter-spacing="0" stroke-width=".264583" word-spacing="0" x="28.580736" y="358.92639"><tspan fill="#fff" font-family="UD Digi Kyokasho NK-R" font-size="50.799999" stroke-width=".264583" x="28.580736" y="358.92639">Powered by Umihime</tspan></text><path d="m222.98793 279.55922a53.031509 56.246609 0 0 1 -66.68082 2.15448 53.031509 56.246609 0 0 1 -15.90703-68.71536 53.031509 56.246609 0 0 1 60.03924-30.84487 53.031509 56.246609 0 0 1 40.97492 55.83685" fill="none" stroke="#fff" stroke-linecap="round" stroke-linejoin="round" stroke-width="7.068617"/><path d="m-90.473942 211.25774a42.333332 42.333332 0 0 1 45.175303-15.3732 42.333332 42.333332 0 0 1 30.788854 36.45805 42.333332 42.333332 0 0 1 -22.719407 41.96394 42.333332 42.333332 0 0 1 -47.359286-5.8516" fill="none" stroke="#17a9ff" stroke-linecap="round" stroke-linejoin="round" stroke-width="7"/><path d="m-135.02996 273.71939a48.995029 55.217094 0 0 1 52.087993-3.68748" fill="none" stroke="#17a9ff" stroke-linecap="round" stroke-linejoin="round" stroke-width="7"/><path d="m652.96191 178.69139v114.70006" fill="none" stroke="#fff" stroke-linecap="round" stroke-width="7"/></g></svg>